<svg xmlns="http://www.w3.org/2000/svg" viewBox="0 0 1600 900" fill="none">
  <polygon points="234.0,282.0 105.4,317.2 199.2,412.0 70.2,378.2 104.0,507.2 9.2,413.4 -26.0,542.0 -61.2,413.4 -156.0,507.2 -122.2,378.2 -251.2,412.0 -157.4,317.2 -286.0,282.0 -157.4,246.8 -251.2,152.0 -122.2,185.8 -156.0,56.8 -61.2,150.6 -26.0,22.0 9.2,150.6 104.0,56.8 70.2,185.8 199.2,152.0 105.4,246.8" fill="#E9E5FF"/>
  <circle cx="78" cy="282" r="90" stroke="#D2C8F8" stroke-width="1.5"/>
  <g fill="#F8E8DF">
    <circle cx="1555" cy="590" r="180"/>
    <circle cx="1437" cy="502" r="106"/>
    <circle cx="1400" cy="618" r="104"/>
    <circle cx="1467" cy="722" r="112"/>
  </g>
  <path d="M1430 402c-57 51-73 134-40 204s94 108 169 114" stroke="#EBCABB" stroke-width="1.5"/>
  <circle cx="1398" cy="194" r="7" fill="#D8D2F5"/>
  <circle cx="194" cy="707" r="5" fill="#EAD2C5"/>
  <path d="M227 596v18m-9-9h18" stroke="#D8D2F5" stroke-width="1.5"/>
</svg>
